# generated from PmQm by Jehee Lee
:FULLY-SPECIFIED
:DEGREES
665
root 5.15221 38.7749 -37.7489 179.932 20.9843 -178.566
RightUpLeg -21.6178 5.94852 -4.70863
RightLeg 18.6379 0.043024 -0.194775
RightFoot -2.71757 -0.351251 4.4097
RightToes 2.92371e-005 7.89716e-005 -0.000493274
Spine 1.19243 -1.35218 0.409572
Spine1 2.40942 -2.62992 1.24737
HEad 21.3234 -11.2374 -4.43066
LeftShoulder1 -3.88251e-019 -0 -3.92111e-022
LeftArm -33.0934 0.358037 -84.099
LeftForeArm 32.3175 2.14228 -0.192621
LeftHand -0.783225 -5.30456 8.80004
RightShoulder 7.45443e-017 -2.42657e-020 1.96277e-018
RightArm -25.8477 -10.3922 74.7738
RightForeArm 27.4371 6.32423 6.68628
RightHand -1.17536 10.6165 -8.89311
LeftUpLeg 2.85465 2.69479 -1.11687
LeftLeg 14.0193 -12.73 -3.59759
LeftFoot -16.8427 0.379499 5.78541
LeftToes 3.91355e-005 3.11907e-005 -4.10385e-006
666
root 5.50716 38.7539 -38.3158 -179.733 21.1963 -178.262
RightUpLeg -21.4662 2.54966 -2.96926
RightLeg 11.0426 3.52525 -1.53063
RightFoot 1.91608 -0.533231 4.64314
RightToes 2.92371e-005 7.89716e-005 -0.000493274
Spine 1.16376 -1.28525 0.982207
Spine1 2.28637 -2.51869 1.49046
HEad 21.2236 -10.9356 -4.60352
LeftShoulder1 -3.88251e-019 -0 -3.92111e-022
LeftArm -34.2761 2.11174 -84.2103
LeftForeArm 34.1273 1.91856 1.4025
LeftHand -0.777095 -4.92346 9.03412
RightShoulder 7.45443e-017 -2.42657e-020 1.96277e-018
RightArm -26.4406 -10.8052 74.504
RightForeArm 27.3506 5.45472 5.50475
RightHand -1.11733 10.4205 -8.57367
LeftUpLeg 4.07237 3.08988 -0.504869
LeftLeg 13.3373 -12.7124 -3.49348
LeftFoot -17.2524 0.396966 5.67534
LeftToes 3.91355e-005 3.11907e-005 -4.10385e-006
667
root 5.99969 38.666 -38.9768 -179.465 21.4896 -178.601
RightUpLeg -21.7854 -0.571752 -1.9794
RightLeg 4.9157 7.32041 -2.08071
RightFoot 5.41903 -1.10525 7.74552
RightToes 2.92371e-005 7.89716e-005 -0.000493274
Spine 0.965815 -1.26278 1.12136
Spine1 1.83313 -2.4922 1.17386
HEad 21.326 -10.5317 -4.54489
LeftShoulder1 -3.88251e-019 -0 -3.92111e-022
LeftArm -35.5453 4.84375 -84.1337
LeftForeArm 35.2227 1.81923 2.72083
LeftHand -0.686605 -4.56733 8.28335
RightShoulder 7.45443e-017 -2.42657e-020 1.96277e-018
RightArm -27.0966 -11.2703 74.331
RightForeArm 27.8551 4.32082 4.35444
RightHand -1.06311 10.0785 -8.34701
LeftUpLeg 5.11386 3.96003 -0.143237
LeftLeg 13.2241 -13.3909 -3.79156
LeftFoot -17.7436 0.400485 5.25133
LeftToes 3.91355e-005 3.11907e-005 -4.10385e-006
668
root 6.61849 38.5495 -39.7352 -179.056 21.6083 -179.285
RightUpLeg -23.2459 -0.83386 -2.39627
RightLeg 2.68377 9.27749 -1.48732
RightFoot 4.17965 -1.51173 11.338
RightToes 2.92371e-005 7.89716e-005 -0.000493274
Spine 0.608081 -1.29273 0.954178
Spine1 1.08449 -2.58028 0.611633
HEad 21.5336 -10.2352 -4.29411
LeftShoulder1 -3.88251e-019 -0 -3.92111e-022
LeftArm -36.737 8.31067 -83.9546
LeftForeArm 35.42 1.79465 3.55195
LeftHand -0.574261 -4.28933 7.16428
RightShoulder 7.45443e-017 -2.42657e-020 1.96277e-018
RightArm -27.7874 -12.198 74.1637
RightForeArm 28.3487 3.55822 3.58874
RightHand -1.00114 9.77078 -8.03391
LeftUpLeg 5.85567 4.74436 0.0341447
LeftLeg 13.5477 -14.3505 -4.20598
LeftFoot -18.2794 0.401043 4.80507
LeftToes 3.91355e-005 3.11907e-005 -4.10385e-006
669
root 7.31019 38.5388 -40.5362 -178.487 21.7068 -179.547
RightUpLeg -23.892 -0.584167 -2.06327
RightLeg 1.94624 11.016 -1.32991
RightFoot 1.81234 -1.37391 11.9546
RightToes 2.92371e-005 7.89716e-005 -0.000493274
Spine 0.343425 -1.29051 0.884136
Spine1 0.542462 -2.58723 0.446375
HEad 21.4526 -10.059 -3.99996
LeftShoulder1 -3.88251e-019 -0 -3.92111e-022
LeftArm -37.6349 11.7953 -83.6925
LeftForeArm 35.1111 1.80619 3.79952
LeftHand -0.541593 -4.13879 6.8734
RightShoulder 7.45443e-017 -2.42657e-020 1.96277e-018
RightArm -28.4322 -13.5181 74.0241
RightForeArm 28.1633 3.53694 3.14401
RightHand -0.882461 9.36704 -7.30923
LeftUpLeg 6.95789 4.95545 0.573514
LeftLeg 13.195 -14.8081 -4.30489
LeftFoot -17.9211 0.342707 4.08636
LeftToes 3.91355e-005 3.11907e-005 -4.10385e-006
670
root 8.09928 38.6043 -41.4127 -178.106 21.6164 -179.522
RightUpLeg -23.0674 0.176563 -1.2225
RightLeg 1.80558 10.2594 -1.90901
RightFoot 3.67681 -1.28583 9.92334
RightToes 2.92371e-005 7.89716e-005 -0.000493274
Spine 0.244037 -1.34107 0.900364
Spine1 0.346212 -2.6604 0.545704
HEad 21.0064 -9.81901 -3.96295
LeftShoulder1 -3.88251e-019 -0 -3.92111e-022
LeftArm -38.1896 14.8239 -83.2888
LeftForeArm 34.6483 1.82347 3.61378
LeftHand -0.569458 -4.25179 7.13366
RightShoulder 7.45443e-017 -2.42657e-020 1.96277e-018
RightArm -28.9422 -14.8332 73.9741
RightForeArm 27.7104 3.68847 2.85034
RightHand -0.763778 8.84826 -6.59282
LeftUpLeg 8.63455 4.89953 1.50595
LeftLeg 12.5427 -15.1744 -4.25838
LeftFoot -16.814 0.266769 3.46727
LeftToes 3.91355e-005 3.11907e-005 -4.10385e-006
671
root 8.99983 38.6977 -42.4021 -177.768 21.0098 -179.337
RightUpLeg -21.5424 0.872189 -0.312497
RightLeg 1.80935 7.78292 -2.48857
RightFoot 8.85675 -1.34021 7.84898
RightToes 2.92371e-005 7.89716e-005 -0.000493274
Spine 0.0852643 -1.48405 1.04524
Spine1 0.020123 -2.9132 0.811657
HEad 21.0205 -9.59925 -4.37831
LeftShoulder1 -3.88251e-019 -0 -3.92111e-022
LeftArm -38.7434 17.2228 -82.8426
LeftForeArm 34.5268 1.82789 3.57377
LeftHand -0.593874 -4.38558 7.33322
RightShoulder 7.45443e-017 -2.42657e-020 1.96277e-018
RightArm -29.4051 -16.173 73.8478
RightForeArm 27.7311 3.4475 2.59939
RightHand -0.753322 8.70413 -6.56789
LeftUpLeg 10.254 4.80279 2.78883
LeftLeg 12.4627 -16.0085 -4.27755
LeftFoot -15.5585 0.216033 3.33427
LeftToes 3.91355e-005 3.11907e-005 -4.10385e-006
672
root 9.97321 38.8444 -43.4629 -177.092 20.3389 -178.455
RightUpLeg -20.0932 1.72611 1.06467
RightLeg 2.16607 5.70187 -2.44322
RightFoot 11.3753 -1.19254 6.30916
RightToes 2.92371e-005 7.89716e-005 -0.000493274
Spine -0.273235 -1.50963 1.5331
Spine1 -0.728436 -2.91812 1.61967
HEad 22.261 -9.43926 -5.24848
LeftShoulder1 -3.88251e-019 -0 -3.92111e-022
LeftArm -39.5512 18.8236 -82.6101
LeftForeArm 34.6826 1.82206 3.90512
LeftHand -0.612548 -4.13456 7.74061
RightShoulder 7.45443e-017 -2.42657e-020 1.96277e-018
RightArm -29.8668 -17.4759 73.401
RightForeArm 28.7303 2.69763 2.28174
RightHand -0.840763 9.00229 -7.1446
LeftUpLeg 11.1997 4.4045 4.68234
LeftLeg 13.5893 -16.7316 -4.38694
LeftFoot -13.6892 0.142749 2.93394
LeftToes 3.91355e-005 3.11907e-005 -4.10385e-006
673
root 10.9538 39.0368 -44.5359 -176.354 20.2013 -176.711
RightUpLeg -18.3624 2.94274 3.21707
RightLeg 2.98525 4.61211 -1.87445
RightFoot 9.46969 -0.850566 4.97242
RightToes 2.92371e-005 7.89716e-005 -0.000493274
Spine -0.598694 -1.3488 2.40788
Spine1 -1.42748 -2.5045 3.07465
HEad 24.2054 -8.89784 -6.52705
LeftShoulder1 -3.88251e-019 -0 -3.92111e-022
LeftArm -40.2313 19.6415 -82.9287
LeftForeArm 33.7492 1.85242 4.08186
LeftHand -0.615866 -3.74395 8.08627
RightShoulder 7.45443e-017 -2.42657e-020 1.96277e-018
RightArm -30.1154 -18.1766 72.699
RightForeArm 30.6203 1.69978 1.79173
RightHand -0.897645 9.0538 -7.57724
LeftUpLeg 11.452 2.79921 6.92675
LeftLeg 16.4141 -15.5927 -4.74336
LeftFoot -10.8694 0.0591544 1.68872
LeftToes 3.91355e-005 3.11907e-005 -4.10385e-006
674
root 11.8836 39.1985 -45.558 -176.258 19.9929 -175.036
RightUpLeg -15.8791 3.81413 5.34366
RightLeg 3.64324 3.69841 -1.22653
RightFoot 6.63414 -0.611867 4.15589
RightToes 2.92371e-005 7.89716e-005 -0.000493274
Spine -0.629109 -1.33329 3.3867
Spine1 -1.55439 -2.33954 4.54129
HEad 25.7949 -7.86098 -7.83321
LeftShoulder1 -3.88251e-019 -0 -3.92111e-022
LeftArm -40.1324 19.635 -83.7262
LeftForeArm 30.9972 1.93668 3.70801
LeftHand -0.581701 -3.78987 7.61755
RightShoulder 7.45443e-017 -2.42657e-020 1.96277e-018
RightArm -30.059 -18.1416 72.0619
RightForeArm 31.7388 1.14255 1.339
RightHand -0.876253 8.66757 -7.59268
LeftUpLeg 10.7712 0.959759 8.87962
LeftLeg 21.6116 -13.239 -5.39909
LeftFoot -7.4634 0.0337812 0.299763
LeftToes 3.91355e-005 3.11907e-005 -4.10385e-006
